{"glyphs":{":":{"x_min":0,"x_max":279,"ha":279,"o":"m 73 391 l 206 391 l 206 528 l 73 528 z m 73 0 l 206 0 l 206 137 l 73 137 z"},"$":{"x_min":0,"x_max":642,"ha":642,"o":"m 285 -98 l 372 -98 l 372 1 b 499 12 585 85 585 194 l 585 196 b 585 303 520 364 368 402 l 368 592 b 415 582 460 561 504 528 l 560 622 b 505 663 445 689 372 698 l 372 758 l 285 758 l 285 700 b 160 690 75 617 75 509 l 75 507 b 75 395 143 340 289 302 l 289 106 b 224 116 170 146 113 192 l 49 101 b 117 47 198 12 285 2 z m 289 423 b 212 446 193 473 193 514 l 193 516 b 193 560 226 594 289 599 z m 368 102 l 368 283 b 446 260 467 233 467 189 l 467 187 b 467 139 431 107 368 102 z"},"?":{"x_min":0,"x_max":541,"ha":541,"o":"m 207 221 l 288 221 l 298 302 b 409 321 499 378 499 504 l 499 506 b 499 631 405 709 265 709 b 157 709 82 664 24 598 l 99 518 b 147 569 199 597 262 597 b 334 597 377 558 377 502 l 377 500 b 377 434 319 393 192 388 l 187 383 z m 178 0 l 312 0 l 312 137 l 178 137 z"},"<":{"x_min":0,"x_max":634,"ha":634,"o":"m 545 77 l 545 193 l 187 353 l 545 512 l 545 627 l 67 406 l 67 298 z"},"'":{"x_min":0,"x_max":269,"ha":269,"o":"m 60 401 l 124 401 l 222 695 l 222 700 l 83 700 z"},"=":{"x_min":0,"x_max":634,"ha":634,"o":"m 76 421 l 558 421 l 558 533 l 76 533 z m 76 171 l 558 171 l 558 283 l 76 283 z"},"a":{"x_min":0,"x_max":587,"ha":587,"o":"m 519 0 l 519 313 b 519 454 443 536 287 536 b 201 536 144 518 86 492 l 119 395 b 167 415 211 428 270 428 b 354 428 400 388 400 315 l 400 305 b 359 318 318 327 254 327 b 131 327 40 271 40 154 l 40 152 b 40 46 128 -11 228 -11 b 308 -11 363 22 399 65 l 399 0 z m 402 191 b 402 125 342 80 262 80 b 205 80 160 108 160 158 l 160 160 b 160 211 205 242 281 242 b 328 242 371 233 402 221 z"},"L":{"x_min":0,"x_max":619,"ha":619,"o":"m 90 0 l 581 0 l 581 112 l 213 112 l 213 700 l 90 700 z"},"3":{"x_min":0,"x_max":618,"ha":618,"o":"m 311 -12 b 456 -12 556 80 556 209 l 556 211 b 556 341 456 394 350 408 l 545 608 l 545 700 l 82 700 l 82 593 l 385 593 l 196 392 l 216 315 l 273 315 b 371 315 434 276 434 207 l 434 205 b 434 141 382 99 313 99 b 235 99 179 132 129 191 l 43 111 b 102 39 189 -12 311 -12 z"},";":{"x_min":0,"x_max":279,"ha":279,"o":"m 73 391 l 206 391 l 206 528 l 73 528 z m 52 -145 b 153 -137 206 -90 206 21 l 206 137 l 73 137 l 73 0 l 124 0 b 129 -51 100 -82 39 -94 z"},"J":{"x_min":0,"x_max":559,"ha":559,"o":"m 245 -10 b 315 -10 374 11 415 52 b 456 93 480 155 480 238 l 480 700 l 354 700 l 354 241 b 354 148 309 104 243 104 b 184 104 143 134 102 186 l 21 103 b 67 40 137 -10 245 -10 z"},"V":{"x_min":0,"x_max":750,"ha":750,"o":"m 321 -5 l 429 -5 l 720 700 l 587 700 l 377 162 l 166 700 l 30 700 z"},"\"":{"x_min":0,"x_max":487,"ha":487,"o":"m 279 401 l 342 401 l 440 695 l 440 700 l 303 700 z m 60 401 l 123 401 l 220 695 l 220 700 l 83 700 z"},"7":{"x_min":0,"x_max":609,"ha":609,"o":"m 106 0 l 244 0 l 560 607 l 560 700 l 68 700 l 68 592 l 420 592 z"},"S":{"x_min":0,"x_max":640,"ha":640,"o":"m 335 -10 b 482 -10 585 68 585 199 l 585 201 b 585 317 508 370 360 406 b 226 438 194 462 194 516 l 194 518 b 194 564 236 601 308 601 b 372 601 435 576 498 529 l 564 622 b 493 679 412 710 310 710 b 171 710 71 627 71 507 l 71 505 b 71 376 155 332 304 296 b 434 266 462 239 462 189 l 462 187 b 462 134 414 99 338 99 b 251 99 184 132 117 190 l 43 102 b 127 27 228 -10 335 -10 z"},"}":{"x_min":0,"x_max":487,"ha":487,"o":"m 71 -141 b 253 -108 298 -44 298 59 b 298 74 296 114 296 131 b 296 209 326 241 409 241 l 435 241 l 435 333 l 409 333 b 326 333 296 365 296 443 b 296 460 298 500 298 515 b 298 618 253 682 71 715 l 50 635 b 170 602 186 571 186 498 b 186 478 184 445 184 424 b 184 346 221 309 288 287 b 222 266 184 228 184 150 b 184 129 186 96 186 76 b 186 3 170 -28 50 -61 z"},"Z":{"x_min":0,"x_max":702,"ha":702,"o":"m 65 0 l 638 0 l 638 109 l 225 109 l 638 609 l 638 700 l 78 700 l 78 591 l 478 591 l 65 91 z"},"x":{"x_min":0,"x_max":580,"ha":580,"o":"m 30 0 l 159 0 l 288 185 l 418 0 l 550 0 l 355 271 l 542 528 l 413 528 l 291 354 l 169 528 l 37 528 l 224 268 z"},")":{"x_min":0,"x_max":440,"ha":440,"o":"m 101 -141 b 282 -41 378 98 378 287 b 378 476 282 615 101 715 l 48 634 b 190 540 257 436 257 287 b 257 138 190 34 48 -60 z"},"&":{"x_min":0,"x_max":696,"ha":696,"o":"m 575 -14 l 666 51 l 556 163 b 592 212 623 267 651 323 l 558 372 b 535 323 510 277 483 237 l 363 359 b 456 394 517 449 517 541 l 517 543 b 517 637 442 712 331 712 b 206 712 130 630 130 536 l 130 534 b 130 483 148 439 188 388 b 92 347 39 282 39 192 l 39 190 b 39 69 137 -10 267 -10 b 352 -10 422 25 482 81 z m 298 425 b 259 468 245 494 245 529 l 245 531 b 245 580 278 615 328 615 b 375 615 408 583 408 536 l 408 534 b 408 484 370 451 298 425 z m 280 92 b 212 92 163 135 163 194 l 163 196 b 163 241 191 284 256 312 l 412 153 b 372 115 328 92 280 92 z"},"_":{"x_min":0,"x_max":600,"ha":600,"o":"m -2 -160 l 602 -160 l 602 -66 l -2 -66 z"},"v":{"x_min":0,"x_max":595,"ha":595,"o":"m 243 -4 l 352 -4 l 568 528 l 441 528 l 298 140 l 156 528 l 26 528 z"},"O":{"x_min":0,"x_max":850,"ha":850,"o":"m 424 -12 b 639 -12 791 153 791 350 l 791 352 b 791 549 641 712 426 712 b 211 712 59 547 59 350 l 59 348 b 59 151 209 -12 424 -12 z m 426 101 b 287 101 188 214 188 350 l 188 352 b 188 488 285 599 424 599 b 563 599 662 486 662 350 l 662 348 b 662 212 565 101 426 101 z"},"(":{"x_min":0,"x_max":440,"ha":440,"o":"m 340 -141 l 393 -60 b 251 34 184 138 184 287 b 184 436 251 540 393 634 l 340 715 b 158 615 63 476 63 287 b 63 98 158 -41 340 -141 z"},"C":{"x_min":0,"x_max":738,"ha":738,"o":"m 415 -12 b 546 -12 626 36 699 112 l 620 192 b 560 136 505 101 419 101 b 285 101 188 213 188 350 l 188 352 b 188 489 285 599 419 599 b 499 599 559 564 615 512 l 694 603 b 627 667 549 712 420 712 b 208 712 59 549 59 350 l 59 348 b 59 147 211 -12 415 -12 z"},"W":{"x_min":0,"x_max":1116,"ha":1116,"o":"m 280 -5 l 386 -5 l 558 498 l 730 -5 l 836 -5 l 1080 700 l 951 700 l 784 181 l 612 702 l 508 702 l 336 181 l 169 700 l 36 700 z"},"A":{"x_min":0,"x_max":790,"ha":790,"o":"m 30 0 l 156 0 l 228 169 l 559 169 l 630 0 l 760 0 l 452 705 l 338 705 z m 273 278 l 393 558 l 514 278 z"},"f":{"x_min":0,"x_max":376,"ha":376,"o":"m 103 0 l 224 0 l 224 424 l 362 424 l 362 524 l 222 524 l 222 553 b 222 608 246 633 292 633 b 318 633 339 628 363 620 l 363 722 b 336 730 307 736 265 736 b 213 736 174 722 146 694 b 118 666 103 622 103 563 l 103 525 l 36 525 l 36 424 l 103 424 z"},"Q":{"x_min":0,"x_max":850,"ha":850,"o":"m 721 -21 l 800 67 l 720 135 b 766 196 791 271 791 350 l 791 352 b 791 549 641 712 426 712 b 211 712 59 547 59 350 l 59 348 b 59 151 209 -12 424 -12 b 506 -12 578 12 637 54 z m 426 101 b 287 101 188 214 188 350 l 188 352 b 188 488 285 599 424 599 b 563 599 662 486 662 350 l 662 348 b 662 299 650 254 626 217 l 505 327 l 426 237 l 546 135 b 513 114 472 101 426 101 z"},"w":{"x_min":0,"x_max":861,"ha":861,"o":"m 203 -4 l 311 -4 l 430 357 l 548 -4 l 656 -4 l 829 528 l 708 528 l 600 166 l 482 530 l 379 530 l 262 166 l 156 528 l 32 528 z"},"-":{"x_min":0,"x_max":408,"ha":408,"o":"m 56 247 l 352 247 l 352 366 l 56 366 z"},"E":{"x_min":0,"x_max":670,"ha":670,"o":"m 90 0 l 614 0 l 614 110 l 213 110 l 213 298 l 564 298 l 564 408 l 213 408 l 213 590 l 609 590 l 609 700 l 90 700 z"},"s":{"x_min":0,"x_max":500,"ha":500,"o":"m 257 -10 b 367 -10 453 45 453 156 l 453 158 b 453 253 366 288 289 312 b 227 332 170 348 170 386 l 170 388 b 170 419 197 441 244 441 b 288 441 342 422 393 391 l 441 477 b 385 514 313 537 247 537 b 142 537 59 476 59 376 l 59 374 b 59 273 146 241 224 219 b 286 200 342 186 342 145 l 342 143 b 342 108 312 86 260 86 b 206 86 144 108 87 151 l 33 69 b 99 17 182 -10 257 -10 z"},">":{"x_min":0,"x_max":634,"ha":634,"o":"m 90 77 l 568 298 l 568 406 l 90 627 l 90 511 l 447 351 l 90 192 z"},"l":{"x_min":0,"x_max":286,"ha":286,"o":"m 83 0 l 204 0 l 204 730 l 83 730 z"},"8":{"x_min":0,"x_max":630,"ha":630,"o":"m 315 -10 b 468 -10 582 68 582 193 l 582 195 b 582 278 532 328 456 363 b 515 394 558 441 558 519 l 558 521 b 558 629 455 710 315 710 b 175 710 72 628 72 521 l 72 519 b 72 441 115 394 174 363 b 95 330 48 277 48 192 l 48 190 b 48 70 162 -10 315 -10 z m 315 404 b 243 404 190 447 190 508 l 190 510 b 190 563 240 607 315 607 b 390 607 440 563 440 509 l 440 507 b 440 447 387 404 315 404 z m 315 93 b 223 93 168 141 168 198 l 168 200 b 168 264 232 306 315 306 b 398 306 462 264 462 200 l 462 198 b 462 140 407 93 315 93 z"},"\\":{"x_min":0,"x_max":521,"ha":521,"o":"m 441 -128 l 546 -128 l 94 798 l -11 798 z"},"e":{"x_min":0,"x_max":604,"ha":604,"o":"m 318 -12 b 415 -12 484 27 534 87 l 463 150 b 421 109 379 87 320 87 b 242 87 181 135 168 221 l 556 221 b 557 233 558 244 558 255 b 558 407 473 539 305 539 b 154 539 47 415 47 264 l 47 262 b 47 99 165 -12 318 -12 z m 167 301 b 178 383 230 440 304 440 b 384 440 430 379 438 301 z"},"b":{"x_min":0,"x_max":670,"ha":670,"o":"m 376 -11 b 502 -11 622 88 622 263 l 622 265 b 622 440 501 539 376 539 b 291 539 236 495 197 440 l 197 730 l 76 730 l 76 0 l 197 0 l 197 82 b 234 33 289 -11 376 -11 z m 348 94 b 266 94 194 161 194 263 l 194 265 b 194 366 266 434 348 434 b 430 434 499 367 499 265 l 499 263 b 499 159 431 94 348 94 z"},"%":{"x_min":0,"x_max":849,"ha":849,"o":"m 212 350 b 311 350 378 432 378 529 l 378 531 b 378 627 312 708 214 708 b 115 708 48 626 48 529 l 48 527 b 48 431 114 350 212 350 z m 119 0 l 218 0 l 730 700 l 631 700 z m 635 -8 b 734 -8 801 74 801 171 l 801 173 b 801 269 735 350 637 350 b 538 350 471 268 471 171 l 471 169 b 471 73 537 -8 635 -8 z m 214 427 b 169 427 137 472 137 529 l 137 531 b 137 585 165 631 212 631 b 257 631 289 585 289 529 l 289 527 b 289 473 261 427 214 427 z m 637 69 b 592 69 560 114 560 171 l 560 173 b 560 227 588 273 635 273 b 680 273 712 227 712 171 l 712 169 b 712 115 684 69 637 69 z"},"m":{"x_min":0,"x_max":950,"ha":950,"o":"m 76 0 l 197 0 l 197 297 b 197 379 243 429 310 429 b 377 429 417 383 417 301 l 417 0 l 538 0 l 538 298 b 538 383 585 429 651 429 b 719 429 758 384 758 300 l 758 0 l 879 0 l 879 337 b 879 466 809 539 694 539 b 614 539 558 502 515 446 b 487 502 434 539 358 539 b 277 539 231 495 197 448 l 197 528 l 76 528 z"},"#":{"x_min":0,"x_max":700,"ha":700,"o":"m 101 0 l 208 0 l 235 161 l 399 161 l 371 0 l 478 0 l 506 161 l 624 161 l 624 265 l 524 265 l 553 439 l 660 439 l 660 543 l 571 543 l 598 700 l 491 700 l 465 543 l 301 543 l 328 700 l 221 700 l 194 543 l 76 543 l 76 439 l 176 439 l 147 265 l 39 265 l 39 161 l 129 161 z m 253 265 l 283 439 l 447 439 l 417 265 z"},",":{"x_min":0,"x_max":269,"ha":269,"o":"m 47 -145 b 148 -137 201 -90 201 21 l 201 137 l 68 137 l 68 0 l 119 0 b 124 -51 95 -82 34 -94 z"},"n":{"x_min":0,"x_max":620,"ha":620,"o":"m 76 0 l 197 0 l 197 298 b 197 380 246 429 316 429 b 388 429 429 382 429 300 l 429 0 l 550 0 l 550 336 b 550 459 481 539 362 539 b 280 539 231 496 197 446 l 197 528 l 76 528 z"},"h":{"x_min":0,"x_max":620,"ha":620,"o":"m 76 0 l 197 0 l 197 298 b 197 380 246 429 316 429 b 388 429 429 382 429 300 l 429 0 l 550 0 l 550 336 b 550 459 481 539 362 539 b 280 539 231 496 197 446 l 197 730 l 76 730 z"},"z":{"x_min":0,"x_max":560,"ha":560,"o":"m 52 0 l 511 0 l 511 99 l 206 99 l 511 445 l 511 528 l 63 528 l 63 429 l 357 429 l 52 83 z"},"B":{"x_min":0,"x_max":722,"ha":722,"o":"m 90 0 l 414 0 b 570 0 673 67 673 192 l 673 194 b 673 289 616 336 534 364 b 586 391 634 436 634 520 l 634 522 b 634 569 618 607 587 638 b 547 678 484 700 404 700 l 90 700 z m 211 405 l 211 591 l 388 591 b 467 591 511 557 511 502 l 511 500 b 511 436 458 405 379 405 z m 211 109 l 211 301 l 406 301 b 503 301 550 266 550 207 l 550 205 b 550 142 499 109 415 109 z"},"K":{"x_min":0,"x_max":725,"ha":725,"o":"m 90 0 l 213 0 l 213 203 l 322 315 l 561 0 l 710 0 l 406 399 l 697 700 l 546 700 l 213 348 l 213 700 l 90 700 z"},"R":{"x_min":0,"x_max":723,"ha":723,"o":"m 90 0 l 213 0 l 213 244 l 367 244 l 539 0 l 684 0 l 495 265 b 593 293 662 362 662 477 l 662 479 b 662 540 641 592 604 630 b 559 674 490 700 402 700 l 90 700 z m 213 353 l 213 588 l 392 588 b 483 588 537 547 537 472 l 537 470 b 537 399 481 353 393 353 z"},"T":{"x_min":0,"x_max":648,"ha":648,"o":"m 262 0 l 386 0 l 386 586 l 608 586 l 608 700 l 40 700 l 40 586 l 262 586 z"},"P":{"x_min":0,"x_max":668,"ha":668,"o":"m 90 0 l 213 0 l 213 225 l 352 225 b 506 225 632 307 632 464 l 632 466 b 632 607 529 700 366 700 l 90 700 z m 213 336 l 213 588 l 356 588 b 448 588 507 545 507 463 l 507 461 b 507 388 449 336 356 336 z"},"|":{"x_min":0,"x_max":331,"ha":331,"o":"m 117 -128 l 214 -128 l 214 798 l 117 798 z"},"t":{"x_min":0,"x_max":410,"ha":410,"o":"m 253 -9 b 298 -9 332 1 362 18 l 362 117 b 338 105 314 99 287 99 b 246 99 222 118 222 165 l 222 424 l 364 424 l 364 528 l 222 528 l 222 673 l 101 673 l 101 528 l 34 528 l 34 424 l 101 424 l 101 146 b 101 30 164 -9 253 -9 z"},"M":{"x_min":0,"x_max":868,"ha":868,"o":"m 90 0 l 211 0 l 211 500 l 430 172 l 434 172 l 655 502 l 655 0 l 778 0 l 778 700 l 647 700 l 434 369 l 221 700 l 90 700 z"},"g":{"x_min":0,"x_max":670,"ha":670,"o":"m 311 -162 b 406 -162 480 -139 528 -91 b 572 -47 595 19 595 108 l 595 528 l 474 528 l 474 449 b 433 498 378 539 289 539 b 166 539 49 447 49 291 l 49 289 b 49 134 165 42 289 42 b 376 42 431 82 475 139 l 475 98 b 475 -8 416 -64 308 -64 b 236 -64 176 -43 120 -8 l 75 -99 b 143 -140 224 -162 311 -162 z m 321 144 b 238 144 171 203 171 290 l 171 292 b 171 379 237 437 321 437 b 405 437 476 378 476 291 l 476 289 b 476 204 405 144 321 144 z"},"j":{"x_min":0,"x_max":286,"ha":286,"o":"m 78 609 l 208 609 l 208 724 l 78 724 z m 50 -163 b 149 -163 204 -114 204 -7 l 204 528 l 83 528 l 83 0 b 83 -46 60 -64 26 -64 b 15 -64 4 -63 -8 -61 l -8 -158 b 11 -161 27 -163 50 -163 z"},"i":{"x_min":0,"x_max":286,"ha":286,"o":"m 78 609 l 208 609 l 208 724 l 78 724 z m 83 0 l 204 0 l 204 528 l 83 528 z"},"y":{"x_min":0,"x_max":596,"ha":596,"o":"m 184 -163 b 269 -163 316 -123 358 -15 l 568 528 l 442 528 l 305 136 l 155 528 l 26 528 l 246 0 b 226 -46 205 -61 171 -61 b 146 -61 122 -53 100 -41 l 59 -131 b 96 -151 133 -163 184 -163 z"},"@":{"x_min":0,"x_max":980,"ha":980,"o":"m 499 -162 b 603 -162 687 -134 764 -87 l 746 -57 b 670 -101 598 -124 499 -124 b 261 -124 93 53 93 274 b 93 494 263 674 491 674 b 718 674 887 500 887 316 b 887 179 826 111 755 111 b 706 111 677 139 677 182 b 677 191 679 207 682 225 l 726 477 l 629 492 l 617 432 b 591 472 548 506 476 506 b 360 506 249 397 249 256 b 249 141 330 67 430 67 b 500 67 549 100 585 137 b 608 100 655 67 733 67 b 836 67 927 148 927 316 b 927 523 736 712 491 712 b 246 712 53 513 53 274 b 53 35 243 -162 499 -162 z m 457 154 b 395 154 351 193 351 262 b 351 352 417 420 490 420 b 550 420 595 376 595 312 b 595 225 530 154 457 154 z"},".":{"x_min":0,"x_max":269,"ha":269,"o":"m 68 0 l 201 0 l 201 137 l 68 137 z"},"p":{"x_min":0,"x_max":670,"ha":670,"o":"m 76 -160 l 197 -160 l 197 82 b 234 33 289 -11 376 -11 b 502 -11 622 88 622 263 l 622 265 b 622 440 501 539 376 539 b 291 539 236 495 197 440 l 197 528 l 76 528 z m 348 94 b 266 94 194 161 194 263 l 194 265 b 194 366 266 434 348 434 b 430 434 499 367 499 265 l 499 263 b 499 159 431 94 348 94 z"},"X":{"x_min":0,"x_max":729,"ha":729,"o":"m 37 0 l 178 0 l 363 265 l 547 0 l 692 0 l 438 358 l 682 700 l 541 700 l 366 449 l 192 700 l 47 700 l 292 356 z"},"*":{"x_min":0,"x_max":430,"ha":430,"o":"m 180 382 l 250 382 l 236 504 l 336 431 l 372 492 l 258 542 l 372 592 l 336 653 l 236 580 l 250 702 l 180 702 l 194 580 l 94 653 l 58 592 l 172 542 l 58 492 l 94 431 l 194 504 z"},"Y":{"x_min":0,"x_max":716,"ha":716,"o":"m 296 0 l 420 0 l 420 279 l 698 700 l 557 700 l 359 390 l 163 700 l 18 700 l 296 276 z"},"c":{"x_min":0,"x_max":571,"ha":571,"o":"m 320 -12 b 423 -12 484 29 536 87 l 463 159 b 425 120 383 93 326 93 b 233 93 168 169 168 263 l 168 265 b 168 357 232 433 320 433 b 381 433 420 406 457 367 l 532 448 b 483 502 421 539 321 539 b 163 539 47 413 47 263 l 47 261 b 47 111 163 -12 320 -12 z"},"!":{"x_min":0,"x_max":302,"ha":302,"o":"m 118 221 l 185 221 l 222 665 l 222 700 l 80 700 l 80 665 z m 85 0 l 218 0 l 218 137 l 85 137 z"},"/":{"x_min":0,"x_max":521,"ha":521,"o":"m -25 -128 l 80 -128 l 532 798 l 427 798 z"},"[":{"x_min":0,"x_max":454,"ha":454,"o":"m 88 -130 l 395 -130 l 395 -35 l 203 -35 l 203 605 l 395 605 l 395 700 l 88 700 z"},"6":{"x_min":0,"x_max":656,"ha":656,"o":"m 337 -12 b 484 -12 597 87 597 226 l 597 228 b 597 368 488 448 352 448 b 270 448 222 414 185 378 b 191 506 249 600 353 600 b 414 600 456 577 505 539 l 571 634 b 510 683 448 712 357 712 b 159 712 57 545 57 331 l 57 329 b 57 188 89 115 142 61 b 189 15 251 -12 337 -12 z m 334 94 b 246 94 189 149 189 220 l 189 222 b 189 289 244 345 331 345 b 418 345 474 293 474 223 l 474 221 b 474 149 421 94 334 94 z"},"r":{"x_min":0,"x_max":413,"ha":413,"o":"m 76 0 l 197 0 l 197 201 b 197 341 271 410 377 410 l 384 410 l 384 538 b 291 542 230 488 197 409 l 197 528 l 76 528 z"},"2":{"x_min":0,"x_max":613,"ha":613,"o":"m 49 0 l 555 0 l 555 108 l 222 108 l 366 228 b 490 329 548 389 548 499 l 548 501 b 548 626 454 710 317 710 b 192 710 126 657 59 563 l 146 495 b 200 565 244 600 308 600 b 372 600 421 560 421 491 b 421 428 386 383 290 302 l 49 97 z"},"{":{"x_min":0,"x_max":487,"ha":487,"o":"m 416 -141 l 437 -61 b 317 -28 301 3 301 76 b 301 96 303 129 303 150 b 303 228 266 265 199 287 b 265 308 303 346 303 424 b 303 445 301 478 301 498 b 301 571 317 602 437 635 l 416 715 b 234 682 189 618 189 515 b 189 500 191 460 191 443 b 191 365 161 333 78 333 l 52 333 l 52 241 l 78 241 b 161 241 191 209 191 131 b 191 114 189 74 189 59 b 189 -44 234 -108 416 -141 z"},"9":{"x_min":0,"x_max":656,"ha":656,"o":"m 299 -12 b 487 -12 599 144 599 369 l 599 371 b 599 509 566 586 514 638 b 465 687 408 712 320 712 b 165 712 59 607 59 470 l 59 468 b 59 333 158 246 307 246 b 382 246 436 278 471 320 b 467 191 405 100 302 100 b 242 100 195 121 142 166 l 75 72 b 134 23 202 -12 299 -12 z m 325 349 b 238 349 182 401 182 474 l 182 476 b 182 548 234 606 321 606 b 410 606 467 550 467 477 l 467 475 b 467 407 414 349 325 349 z"}," ":{"x_min":0,"x_max":300,"ha":300,"o":""},"I":{"x_min":0,"x_max":317,"ha":317,"o":"m 97 0 l 220 0 l 220 700 l 97 700 z"},"H":{"x_min":0,"x_max":760,"ha":760,"o":"m 90 0 l 213 0 l 213 295 l 547 295 l 547 0 l 670 0 l 670 700 l 547 700 l 547 409 l 213 409 l 213 700 l 90 700 z"},"4":{"x_min":0,"x_max":681,"ha":681,"o":"m 412 0 l 530 0 l 530 157 l 630 157 l 630 258 l 530 258 l 530 705 l 425 705 l 36 245 l 59 157 l 412 157 z m 182 258 l 412 535 l 412 258 z"},"~":{"x_min":0,"x_max":495,"ha":495,"o":"m 126 229 b 140 263 152 279 181 279 b 216 279 269 239 324 239 b 385 239 414 283 436 364 l 369 384 b 355 350 343 334 314 334 b 279 334 226 374 171 374 b 110 374 81 330 59 250 z"},"D":{"x_min":0,"x_max":782,"ha":782,"o":"m 90 0 l 351 0 b 571 0 723 153 723 350 l 723 352 b 723 549 571 700 351 700 l 90 700 z m 213 112 l 213 588 l 351 588 b 498 588 594 487 594 350 l 594 348 b 594 211 498 112 351 112 z"},"^":{"x_min":0,"x_max":500,"ha":500,"o":"m 56 493 l 147 493 l 249 625 l 351 493 l 444 493 l 293 701 l 207 701 z"},"0":{"x_min":0,"x_max":724,"ha":724,"o":"m 361 -12 b 545 -12 667 150 667 350 l 667 352 b 667 552 546 712 363 712 b 179 712 57 550 57 350 l 57 348 b 57 148 177 -12 361 -12 z m 363 99 b 254 99 184 212 184 350 l 184 352 b 184 491 253 601 361 601 b 469 601 540 488 540 350 l 540 348 b 540 210 472 99 363 99 z"},"F":{"x_min":0,"x_max":656,"ha":656,"o":"m 90 0 l 213 0 l 213 285 l 566 285 l 566 397 l 213 397 l 213 588 l 611 588 l 611 700 l 90 700 z"},"`":{"x_min":0,"x_max":500,"ha":500,"o":"m 247 595 l 338 595 l 234 759 l 124 710 z"},"k":{"x_min":0,"x_max":582,"ha":582,"o":"m 76 0 l 197 0 l 197 151 l 271 228 l 430 0 l 570 0 l 353 313 l 563 528 l 416 528 l 197 294 l 197 730 l 76 730 z"},"u":{"x_min":0,"x_max":620,"ha":620,"o":"m 258 -11 b 340 -11 389 32 423 82 l 423 0 l 544 0 l 544 528 l 423 528 l 423 230 b 423 148 374 99 304 99 b 232 99 191 146 191 228 l 191 528 l 70 528 l 70 192 b 70 69 139 -11 258 -11 z"},"]":{"x_min":0,"x_max":454,"ha":454,"o":"m 59 -130 l 367 -130 l 367 700 l 59 700 l 59 605 l 251 605 l 251 -35 l 59 -35 z"},"U":{"x_min":0,"x_max":757,"ha":757,"o":"m 377 -11 b 560 -11 678 94 678 303 l 678 700 l 555 700 l 555 297 b 555 168 488 102 379 102 b 269 102 202 172 202 302 l 202 700 l 79 700 l 79 297 b 79 94 195 -11 377 -11 z"},"o":{"x_min":0,"x_max":657,"ha":657,"o":"m 327 -12 b 490 -12 610 113 610 263 l 610 265 b 610 416 491 539 329 539 b 167 539 47 414 47 263 l 47 261 b 47 111 166 -12 327 -12 z m 329 93 b 235 93 168 171 168 263 l 168 265 b 168 357 230 433 327 433 b 422 433 489 356 489 263 l 489 261 b 489 170 427 93 329 93 z"},"N":{"x_min":0,"x_max":790,"ha":790,"o":"m 90 0 l 211 0 l 211 498 l 597 0 l 700 0 l 700 700 l 579 700 l 579 216 l 204 700 l 90 700 z"},"+":{"x_min":0,"x_max":634,"ha":634,"o":"m 260 106 l 374 106 l 374 297 l 566 297 l 566 408 l 374 408 l 374 598 l 260 598 l 260 408 l 68 408 l 68 297 l 260 297 z"},"G":{"x_min":0,"x_max":784,"ha":784,"o":"m 422 -12 b 546 -12 645 38 714 97 l 714 391 l 416 391 l 416 284 l 595 284 l 595 153 b 552 121 492 100 426 100 b 283 100 188 206 188 350 l 188 352 b 188 486 286 599 415 599 b 504 599 557 570 611 524 l 689 617 b 617 678 542 712 420 712 b 209 712 59 546 59 350 l 59 348 b 59 144 203 -12 422 -12 z"},"q":{"x_min":0,"x_max":670,"ha":670,"o":"m 474 -160 l 595 -160 l 595 528 l 474 528 l 474 446 b 436 495 381 539 294 539 b 168 539 49 440 49 265 l 49 263 b 49 88 170 -11 294 -11 b 380 -11 435 33 474 88 z m 323 94 b 241 94 171 161 171 263 l 171 265 b 171 370 240 434 323 434 b 404 434 476 367 476 265 l 476 263 b 476 162 404 94 323 94 z"},"d":{"x_min":0,"x_max":670,"ha":670,"o":"m 294 -11 b 380 -11 435 33 474 88 l 474 0 l 595 0 l 595 730 l 474 730 l 474 446 b 436 495 381 539 294 539 b 168 539 49 440 49 265 l 49 263 b 49 88 170 -11 294 -11 z m 323 94 b 241 94 171 161 171 263 l 171 265 b 171 370 240 434 323 434 b 404 434 476 367 476 265 l 476 263 b 476 162 404 94 323 94 z"},"1":{"x_min":0,"x_max":396,"ha":396,"o":"m 178 0 l 300 0 l 300 705 l 214 705 l 26 645 l 52 545 l 178 580 z"},"5":{"x_min":0,"x_max":622,"ha":622,"o":"m 304 -12 b 459 -12 563 82 563 225 l 563 227 b 563 375 456 447 320 447 b 273 447 242 439 209 427 l 220 591 l 532 591 l 532 700 l 114 700 l 94 357 l 168 308 b 204 325 247 339 297 339 b 382 339 442 294 442 223 l 442 221 b 442 148 387 100 303 100 b 238 100 179 132 123 184 l 47 95 b 113 31 197 -12 304 -12 z"}}}
